<?xml version="1.0" encoding="UTF-8"?>
<svg xmlns="http://www.w3.org/2000/svg" viewBox="0 0 800 800">
  <defs>
    <style>
      .uuid-90a48865-7ef5-4e54-9d54-1cd2b3022352 {
        fill: #fff;
      }

      .uuid-54ec291c-40b3-488a-93f3-653a0c7889e9 {
        fill: aqua;
      }
    </style>
  </defs>
  <g id="uuid-b7a94c1d-d8fa-4429-b812-f3b842da66b7" data-name="图层 1">
    <rect class="uuid-90a48865-7ef5-4e54-9d54-1cd2b3022352" width="800" height="800"/>
  </g>
  <g id="uuid-ac582b9f-877e-442f-91dc-2dc34760c3e8" data-name="图层 5">
    <path d="m683,332.51c0,8.77-2.13,16.75-6.39,23.93-4.26,7.19-9.98,12.91-17.17,17.17-7.18,4.26-15.16,6.39-23.92,6.39h-15.34v-39.45h14.25c2.44,0,4.57-.91,6.39-2.74s2.74-3.96,2.74-6.39v-165.84c0-2.43-.91-4.5-2.74-6.21-1.83-1.7-3.96-2.56-6.39-2.56h-54.06c-2.68,0-4.87.86-6.57,2.56-1.7,1.71-2.56,3.78-2.56,6.21v166.93c0,8.77-2.13,16.75-6.39,23.93-4.26,7.19-9.98,12.91-17.17,17.17-7.18,4.26-15.16,6.39-23.93,6.39h-56.25c-8.77,0-16.74-2.13-23.93-6.39-7.18-4.26-12.9-9.98-17.17-17.17-4.26-7.18-6.39-15.16-6.39-23.93v-168.03c0-8.77,2.13-16.74,6.39-23.93,4.26-7.18,9.99-12.9,17.17-17.17,7.19-4.26,15.16-6.39,23.93-6.39h15.34v39.81h-14.25c-2.43,0-4.57.86-6.39,2.56-1.83,1.71-2.74,3.78-2.74,6.21v165.84c0,2.44.91,4.57,2.74,6.39s3.96,2.74,6.39,2.74h54.06c2.68,0,4.87-.91,6.57-2.74,1.71-1.83,2.56-3.96,2.56-6.39v-166.93c0-8.77,2.13-16.74,6.39-23.93,4.26-7.18,9.99-12.9,17.17-17.17,7.19-4.26,15.16-6.39,23.93-6.39h56.25c8.77,0,16.75,2.13,23.92,6.39,7.19,4.26,12.91,9.99,17.17,17.17,4.26,7.19,6.39,15.16,6.39,23.93v168.03Z"/>
    <path d="m683.14,682.82h-263v-39.45h111.78s0-182.37,0-182.37h-111.78v-39.81h263v39.81h-111.78s0,182.37,0,182.37h111.78v39.45Z"/>
    <polyline points="339.96 501 380 501 379.96 682.88 117.51 682.88 117.51 643.57 340.64 643.57"/>
    <path d="m379.96,460.23H118.05v-39.78h261.91v39.78Z"/>
    <path d="m380,379.97H116.73v-47.17s209.89-176.25,209.89-176.25H116.73v-39.86h263.27v47.17s-210.25,176.61-210.25,176.61h210.25v39.49Z"/>
    <path class="uuid-54ec291c-40b3-488a-93f3-653a0c7889e9" d="m159.98,460.83h-42.98v-40.88h42.98v40.88Z"/>
  </g>
</svg>